/* XPM */
static char *camorama[] = {
/* columns rows colors chars-per-pixel */
"32 32 25 1",
"  c #000800080008",
". c #0BBF0BA90BD7",
"X c #179F173E17F3",
"o c #2FAE2F12305C",
"O c #203520251FEF",
"+ c #519E4FE9528F",
"@ c #71B56F987008",
"# c #636C6032614A",
"$ c #7EB97DB181B5",
"% c #818D7CDA7B9F",
"& c #81777FBB82CE",
"* c #8E9C88607B29",
"= c #90578F3C91C8",
"- c #9DD19DCEA1D0",
"; c #A1059FE9A237",
": c #ADBCAE57B197",
"> c #B0D4B042B217",
", c #ACF9A78D98D3",
"< c #BE5DBEF9C233",
"1 c #C096C0C4C348",
"2 c #CE15CFF5D25D",
"3 c #DB93DF88E2FB",
"4 c #DD21E0FDE3EE",
"5 c #E342E427E576",
"6 c None",
/* pixels */
"66666666666666666666666666666666",
"6666666666666666===o666666666666",
"666666666666X>432222-+   6666666",
"66666666666@>432212><>+.  666666",
"6666666666O>532221>2::;@   66666",
"6666666666>542322>>>::--o   6666",
"666666666o5521>2><,,;;-;#.  6666",
"66666666 -5>@#@,<<>:--===O   666",
"66666666 =>@##+@::;--====o    66",
"66666666 -=#@*@+;:--=$=$$o    66",
"66666666 -=@*,*+-:--==$$$o    66",
"66666666 =:@,,#+;---=$$=@o    66",
"66666666 #2=##+=>;-=$$@@+X    66",
"66666666 X11===>:;===$$@+     66",
"66666666  @22<>>;-;=$$@#.     66",
"66666666 #>32>>>;;===$=&.    666",
"6666666o333322>>>;-==$=;#    666",
"666666o233335521>;--=:22=o   666",
"6666O:333333332>23223333<$    66",
"666#:33333332,>,=23333332:o   66",
"66@433333355%=@==<33333332=X   6",
"6+2333333333=$>;:2333333332+   6",
"6@::::>>12223>2333333333333<o   ",
"6Oo+@@--=-;:<>>2223333333333@.  ",
"6       .Ooo++@@===-:22222232+  ",
"6          ..X...XOo+#-:>><><=  ",
"6                      X+#@@==  ",
"66                         .XX  ",
"666666                          ",
"666666666                       ",
"66666666666666666666            ",
"66666666666666666666666666      "
};
