/* XPM */
static char * linuxart_camera_24x24_slimmed_down_xpm[] = {
"24 24 22 1",
" 	c None",
".	c #000000",
"+	c #68686E",
"@	c #181818",
"#	c #8D8D8F",
"$	c #4A4A52",
"%	c #EDEFF1",
"&	c #8F0008",
"*	c #DF3800",
"=	c #ABAFB7",
"-	c #2A2A2C",
";	c #7E8081",
">	c #767881",
",	c #809FCF",
"'	c #345E81",
")	c #CBCFD3",
"!	c #E5E7EB",
"~	c #4C6C93",
"{	c #183078",
"]	c #FFFFFF",
"^	c #104070",
"/	c #083878",
"                        ",
"                        ",
"    .................   ",
"   ..+.##############.  ",
"  .#+...........$$$$$@. ",
"  ...#.%%%&*.==.$.$$$-. ",
"  .....;#=&*....$.$$$;. ",
" .#@................... ",
" .$.$$.$+@$$$$$$.+.+$;. ",
" .>$$#.-@$$-......$$$;. ",
" .$#$>.-$-.........$$;. ",
" .>$$+.--.-####++-..$;. ",
" .$>$+.--@#=.....+$.$;. ",
" .>$$+.-.-=.+;#,'.+-.;. ",
" .-+$+.-.#.$)!=~~{.+.;. ",
" .-$$+.-.=.{]'~'~{.+.;. ",
" .-$$$.#.;.{>~~''{.+.;. ",
" .@$$$.-.;.''''''{.+.;. ",
"  .$...-.;.{''''{{.+.+. ",
"   .......#.{{{{{.+.@@  ",
"         ..#.....#..    ",
"          ..#####..     ",
"           .......      ",
"                        "};
