/* XPM */
static char * linuxart_xpm[] = {
"16 16 33 1",
" 	c None",
".	c #020202",
"+	c #B2B2B2",
"@	c #7F7D85",
"#	c #366387",
"$	c #2A5A7A",
"%	c #2E2E2E",
"&	c #2A2A2B",
"*	c #FCFCFC",
"=	c #960202",
"-	c #242425",
";	c #8AAAE2",
">	c #E1E6F2",
",	c #62626A",
"'	c #323232",
")	c #16318C",
"!	c #9ABFFB",
"~	c #1C1C18",
"{	c #42424E",
"]	c #122A8A",
"^	c #9A9AA0",
"/	c #6E6E75",
"(	c #4A4A54",
"_	c #ADADB0",
":	c #595962",
"<	c #878488",
"[	c #161616",
"}	c #46668A",
"|	c #4E6A92",
"1	c #B6B6BA",
"2	c #8B8B94",
"3	c #59769B",
"4	c #BDBDBD",
"                ",
"   ..........   ",
"  ..2[444444+.  ",
" .4<........{.. ",
" ...*.**=.>..&. ",
" .,::.:&.....^. ",
" .2/(.&.-422%.. ",
" .({(.'.+...@:. ",
" .^/{..>/!!#.<&.",
" .-{(.1.*;}3].2.",
" .&/{.>.<3##).2.",
" .&@(.@.)))).-<.",
" ..-:&._~...&<. ",
"  .~..&._---4.  ",
"   ......11_.   ",
"         ...    "};
